<?xml version="1.0" encoding="UTF-8"?> <svg xmlns="http://www.w3.org/2000/svg" xmlns:xlink="http://www.w3.org/1999/xlink" class="uni-node uni-Svg uni-node-u5ed8ba" fill="none" viewBox="0 0 217 204" height="204" width="217"><g filter="url(#filter0_d_2003_317)"><path fill="#6060E6" d="M106.851 114.186L16.6648 149.157L110.093 185.36L200.28 150.389L106.851 114.186Z"></path><path style="mix-blend-mode:darken" fill-opacity="0.2" fill="black" d="M106.851 114.186L16.6648 149.157L110.093 185.36L200.28 150.389L106.851 114.186Z"></path></g><path fill="#5757C5" d="M109.565 185.648L15.5428 149.157V116.929L107.037 81.5039L201.191 117.728V150.223L109.565 185.648Z"></path><path fill="#6767E5" d="M49.7583 57.5322L15.8092 44.7472V12.7849L49.7583 0L84.2618 12.7849V44.7472L49.7583 57.5322Z"></path><path fill="#6060E6" d="M107.488 81.0651L15.6556 116.674L109.568 153.064L201.4 117.455L107.488 81.0651Z"></path><path style="mix-blend-mode:darken" fill-opacity="0.2" fill="black" d="M107.488 81.0651L15.6556 116.674L109.568 153.064L201.4 117.455L107.488 81.0651Z"></path><path fill="#6A6AE6" d="M109.529 153.079L15.5428 116.665L15.5581 149.431L109.544 185.845L109.529 153.079Z"></path><path fill="#6565E6" d="M109.583 153.152L201.217 117.638L201.23 150.484L109.596 185.998L109.583 153.152Z"></path><path style="mix-blend-mode:darken" fill-opacity="0.14" fill="black" d="M109.583 153.152L201.217 117.638L201.23 150.484L109.596 185.998L109.583 153.152Z"></path><path fill="#4FD7E0" d="M109.565 133.176L15.5428 96.6858V64.4571L107.168 29.0322L201.191 65.2562L200.658 98.2839L109.565 133.176Z"></path><path fill="#40CAD6" d="M107.464 28.6999L15.6318 64.3086L109.544 100.699L200.924 65.2564L107.464 28.6999Z"></path><path style="mix-blend-mode:overlay" fill-opacity="0.24" fill="white" d="M107.464 28.6999L15.6318 64.3086L109.544 100.699L200.924 65.2564L107.464 28.6999Z"></path><path fill="#40CAD6" d="M109.529 100.743L15.5428 64.3291L15.5581 97.0951L109.544 133.509L109.529 100.743Z"></path><path fill="#3CC9D6" d="M109.559 100.675L201.193 65.1611L201.206 98.0076L109.572 133.522L109.559 100.675Z"></path><path style="mix-blend-mode:multiply" fill-opacity="0.14" fill="black" d="M109.559 100.675L201.193 65.1611L201.206 98.0076L109.572 133.522L109.559 100.675Z"></path><path fill="#6A6AE6" d="M49.9533 6.31588e-05L15.5643 12.7812L50.0133 25.6004L84.4023 12.8193L49.9533 6.31588e-05Z"></path><path style="mix-blend-mode:lighten" fill-opacity="0.16" fill="white" d="M49.9533 6.31588e-05L15.5643 12.7812L50.0133 25.6004L84.4023 12.8193L49.9533 6.31588e-05Z"></path><path fill="#6767E6" d="M49.9306 25.5917L15.558 12.8008V44.8663L49.9306 57.6572V25.5917Z"></path><path fill="#6565E6" d="M49.9588 25.5917L84.3314 12.8008V44.8663L49.9588 57.6572V25.5917Z"></path><path style="mix-blend-mode:darken" fill-opacity="0.14" fill="black" d="M49.9588 25.5917L84.3314 12.8008V44.8663L49.9588 57.6572V25.5917Z"></path><defs><filter color-interpolation-filters="sRGB" height="103.174" width="215.615" y="100.187" x="0.664795" id="filter0_d_2003_317"><feFlood result="BackgroundImageFix" flood-opacity="0"></feFlood><feColorMatrix result="hardAlpha" values="0 0 0 0 0 0 0 0 0 0 0 0 0 0 0 0 0 0 127 0" type="matrix" in="SourceAlpha"></feColorMatrix><feOffset dy="2"></feOffset><feGaussianBlur stdDeviation="8"></feGaussianBlur><feComposite operator="out" in2="hardAlpha"></feComposite><feColorMatrix values="0 0 0 0 0 0 0 0 0 0 0 0 0 0 0 0 0 0 0.24 0" type="matrix"></feColorMatrix><feBlend result="effect1_dropShadow_2003_317" in2="BackgroundImageFix" mode="normal"></feBlend><feBlend result="shape" in2="effect1_dropShadow_2003_317" in="SourceGraphic" mode="normal"></feBlend></filter></defs></svg> 