<?xml version="1.0" encoding="UTF-8"?> <!-- Generator: Adobe Illustrator 16.0.0, SVG Export Plug-In . SVG Version: 6.00 Build 0) --> <svg xmlns="http://www.w3.org/2000/svg" xmlns:xlink="http://www.w3.org/1999/xlink" version="1.1" id="Layer_1" x="0px" y="0px" width="200px" height="200px" viewBox="0 0 200 200" xml:space="preserve"> <g> <path fill="#6104FF" d="M100.07,0.567C80.513,0.553,61.39,6.373,45.121,17.292C28.852,28.21,16.168,43.735,8.675,61.902 c-7.493,18.17-9.46,38.166-5.651,57.46c3.807,19.292,13.221,37.017,27.047,50.928s31.445,23.387,50.627,27.229 c19.181,3.841,39.063,1.872,57.134-5.654s33.516-20.273,44.38-36.629c10.865-16.356,16.662-35.583,16.658-55.254 c-0.004-26.356-10.413-51.63-28.94-70.272C151.403,11.067,126.277,0.586,100.07,0.567z M137.287,115.16c0,0.264,0,0.513,0,0.739 c-0.018,0.258-0.054,0.511-0.106,0.761v0.456c-0.501,2.877-1.561,5.629-3.119,8.096c-0.3,0.475-0.615,0.914-0.931,1.338 c-0.42,0.542-0.871,1.06-1.348,1.551c-0.466,0.588-0.977,1.135-1.526,1.641l-0.21,0.177l-0.281,0.246l-0.123,0.105l-0.578,0.477 l-0.631,0.477l-0.14,0.085l-0.633,0.441l-45.84,30.535c-0.37,0.263-0.811,0.397-1.262,0.39c-0.157,0.019-0.316,0.019-0.474,0 c-0.294-0.063-0.574-0.181-0.821-0.353c-0.247-0.174-0.456-0.396-0.615-0.653c0-0.123-1.087-1.887-1.157-2.008 c-0.058-0.142-0.122-0.276-0.193-0.408v-0.19c-0.048-0.086-0.088-0.174-0.123-0.268v-0.192c0-0.107-0.088-0.196-0.123-0.3v-0.142 l-0.123-0.335c-1.812-4.707-1.97-9.895-0.449-14.702c1.521-4.811,4.63-8.954,8.811-11.742l21.352-14.228 c0.331-0.225,0.59-0.539,0.742-0.91c0.154-0.369,0.193-0.779,0.117-1.171c-0.069-0.397-0.259-0.764-0.54-1.052 c-0.282-0.288-0.645-0.479-1.039-0.553l-25.085-5.13l-0.718-0.159h-0.193l-0.667-0.176l-0.718-0.213l-0.281-0.105l-0.386-0.123 h-0.192L77,107.299h-0.21l-0.42-0.177h-0.193l-0.667-0.32h-0.122c-0.231-0.097-0.454-0.216-0.667-0.35l-0.648-0.369l-0.632-0.389 c-1.982-1.261-3.757-2.825-5.259-4.637l-0.543-0.777l-0.631-0.95c-2.216-3.261-3.5-7.068-3.71-11.011 c-0.211-3.944,0.661-7.868,2.517-11.347c0.229-0.458,0.475-0.879,0.72-1.287l0.368-0.58c0.28-0.44,0.596-0.882,0.912-1.306 c0.106-0.159,0.224-0.314,0.35-0.458c0.139-0.192,0.291-0.375,0.457-0.548l0.438-0.509l0.209-0.23 c0.105-0.122,0.21-0.21,0.298-0.299v-0.088c0.154-0.174,0.319-0.337,0.491-0.492l0.421-0.372l0.139-0.125l0.438-0.388l0.544-0.421 l0.174-0.14l0.351-0.267l0.21-0.14l0.561-0.388l45.58-30.359c0.292-0.191,0.619-0.322,0.964-0.383 c0.343-0.066,0.695-0.059,1.036,0.018c0.342,0.075,0.665,0.218,0.95,0.421c0.285,0.201,0.527,0.459,0.713,0.756l0.385,0.634v0.159 l0.334,0.599l0.28,0.548v0.178l0.123,0.246c0.049,0.092,0.09,0.185,0.123,0.283l0.264,0.632c0.062,0.122,0.114,0.243,0.156,0.372 c-0.01,0.083-0.01,0.167,0,0.246v0.159c1.633,4.621,1.701,9.653,0.193,14.316c-1.528,4.751-4.619,8.836-8.766,11.583L94.04,83.445 c-0.334,0.22-0.598,0.534-0.753,0.906c-0.157,0.37-0.201,0.779-0.125,1.172c0.076,0.397,0.266,0.76,0.547,1.045 c0.28,0.286,0.64,0.482,1.032,0.561l24.876,5.078c4.979,1.027,9.45,3.75,12.665,7.711c3.211,3.959,4.968,8.915,4.969,14.025 c0.141-0.192,0.036,1.197,0.036,1.197V115.16z"></path> </g> </svg> 