<?xml version="1.0" encoding="UTF-8"?> 
<svg xmlns="http://www.w3.org/2000/svg" version="1.1" id="White" x="0" y="0" viewBox="0 0 117.5 117.5" xml:space="preserve">
    <style>
        .st0 {
            fill: #000
        }
    </style>
    <path class="st0" d="M95 83.8l-19.4-9.1 3.1-6.7c1.1-2.3 1.7-4.8 2-7.2.6-6.6-1.8-13.2-6.5-17.8-1.7-1.7-3.8-3.2-6.1-4.2-2.3-1.1-4.8-1.7-7.2-2-6.6-.6-13.2 1.8-17.8 6.5-1.7 1.7-3.2 3.8-4.2 6.1l-3.1 6.7-6 12.8c-.1.3 0 .6.3.8l12.8 6 6.7 3.1 6.7 3.1 13.3 6.2L84 94.9c-12.7 8.9-29.8 10.8-44.8 3.4C17.7 87.6 8.6 61.4 19.1 39.7 29.5 18 55.5 8.7 77.4 18.9c17.3 8 26.8 25.8 25.3 43.8 0 .2.1.5.3.6l12.8 6c.3.2.8 0 .8-.4 4.4-25.6-8.6-52-33.4-63.4C53.8-8.1 19.2 4.6 5.5 34c-13.7 29.4-1 64.4 28.4 78.1 22.3 10.4 47.9 5.6 64.9-10.3 3.5-3.3 6.6-7 9.3-11.1.2-.3.1-.7-.2-.9l-12.9-6zM49 62.3l3.1-6.7c1.7-3.7 6.1-5.3 9.8-3.6 3.7 1.7 5.3 6.1 3.6 9.8l-3.1 6.7-6.7-3.1-6.7-3.1zM182.7 54.9h25.4V88c-4.1 1.3-8 2.3-11.6 2.8-3.6.5-7.4.8-11.1.8-9.7 0-17-2.8-22.1-8.5-5.1-5.7-7.6-13.8-7.6-24.5 0-10.3 3-18.4 8.9-24.2 5.9-5.8 14.1-8.7 24.6-8.7 6.6 0 12.9 1.3 19 3.9l-4.5 10.9c-4.7-2.3-9.5-3.5-14.6-3.5-5.9 0-10.6 2-14.1 5.9-3.5 3.9-5.3 9.2-5.3 15.9 0 6.9 1.4 12.3 4.3 15.9 2.8 3.7 7 5.5 12.4 5.5 2.8 0 5.7-.3 8.6-.9V66.1h-12.1V54.9zM240.1 91.7c-7.9 0-14-2.2-18.5-6.5-4.4-4.3-6.7-10.5-6.7-18.5 0-8.2 2.1-14.5 6.2-19s9.8-6.7 17-6.7c6.9 0 12.3 2 16.2 5.9 3.9 3.9 5.8 9.4 5.8 16.3v6.5h-31.6c.1 3.8 1.3 6.8 3.4 8.9 2.1 2.1 5.1 3.2 8.8 3.2 2.9 0 5.7-.3 8.4-.9 2.6-.6 5.4-1.6 8.2-2.9v10.3c-2.3 1.2-4.8 2-7.5 2.6-2.7.5-5.9.8-9.7.8zm-1.9-41.3c-2.8 0-5.1.9-6.7 2.7-1.6 1.8-2.5 4.3-2.8 7.6h18.7c-.1-3.3-.9-5.8-2.6-7.6-1.5-1.8-3.8-2.7-6.6-2.7zM311.6 90.8h-13.4V62.2c0-3.5-.6-6.2-1.9-7.9-1.3-1.8-3.3-2.6-6-2.6-3.7 0-6.4 1.2-8.1 3.7-1.7 2.5-2.5 6.6-2.5 12.4v23h-13.4v-49h10.2l1.8 6.3h.7c1.5-2.4 3.5-4.2 6.2-5.4 2.6-1.2 5.6-1.8 8.9-1.8 5.7 0 10 1.5 13 4.6 2.9 3.1 4.4 7.5 4.4 13.3v32zM343.1 91.7c-7.9 0-14-2.2-18.5-6.5-4.4-4.3-6.7-10.5-6.7-18.5 0-8.2 2.1-14.5 6.2-19s9.8-6.7 17-6.7c6.9 0 12.3 2 16.2 5.9 3.9 3.9 5.8 9.4 5.8 16.3v6.5h-31.6c.1 3.8 1.3 6.8 3.4 8.9 2.1 2.1 5.1 3.2 8.8 3.2 2.9 0 5.7-.3 8.4-.9 2.6-.6 5.4-1.6 8.2-2.9v10.3c-2.3 1.2-4.8 2-7.5 2.6-2.6.5-5.9.8-9.7.8zm-1.9-41.3c-2.8 0-5.1.9-6.7 2.7-1.6 1.8-2.5 4.3-2.8 7.6h18.7c-.1-3.3-.9-5.8-2.6-7.6-1.5-1.8-3.7-2.7-6.6-2.7zM397.3 40.9c1.8 0 3.3.1 4.5.4l-1 12.5c-1.1-.3-2.4-.4-3.9-.4-4.3 0-7.6 1.1-10 3.3-2.4 2.2-3.6 5.3-3.6 9.2v24.9H370v-49h10.1l2 8.2h.7c1.5-2.7 3.6-5 6.2-6.6 2.5-1.6 5.3-2.5 8.3-2.5zM436.5 90.8l-2.6-6.7h-.4c-2.2 2.8-4.6 4.8-6.9 5.9-2.4 1.1-5.5 1.6-9.3 1.6-4.7 0-8.4-1.3-11.1-4-2.7-2.7-4.1-6.5-4.1-11.5 0-5.2 1.8-9 5.5-11.5 3.6-2.5 9.1-3.8 16.4-4.1l8.5-.3v-2.1c0-5-2.5-7.4-7.6-7.4-3.9 0-8.5 1.2-13.8 3.5l-4.4-9c5.6-2.9 11.9-4.4 18.7-4.4 6.6 0 11.6 1.4 15.1 4.3s5.3 7.2 5.3 13.1v32.6h-9.3zm-4-22.7l-5.2.2c-3.9.1-6.8.8-8.7 2.1-1.9 1.3-2.8 3.2-2.8 5.9 0 3.8 2.2 5.6 6.5 5.6 3.1 0 5.6-.9 7.4-2.7 1.9-1.8 2.8-4.1 2.8-7.1v-4zM476.2 81c2.3 0 5.1-.5 8.4-1.5v9.9c-3.3 1.5-7.4 2.2-12.3 2.2-5.3 0-9.2-1.3-11.7-4.1-2.4-2.7-3.7-6.8-3.7-12.2V51.9h-6.4v-5.6l7.4-4.5 3.9-10.3h8.5v10.4H484v10h-13.7v23.6c0 1.9.5 3.3 1.6 4.2 1.1.9 2.5 1.3 4.3 1.3zM513.1 91.7c-7.9 0-14-2.2-18.5-6.5-4.4-4.3-6.7-10.5-6.7-18.5 0-8.2 2.1-14.5 6.2-19s9.8-6.7 17-6.7c6.9 0 12.3 2 16.2 5.9 3.9 3.9 5.8 9.4 5.8 16.3v6.5h-31.6c.1 3.8 1.3 6.8 3.4 8.9 2.1 2.1 5.1 3.2 8.8 3.2 2.9 0 5.7-.3 8.4-.9 2.6-.6 5.4-1.6 8.2-2.9v10.3c-2.3 1.2-4.8 2-7.5 2.6-2.7.5-5.9.8-9.7.8zm-1.9-41.3c-2.8 0-5.1.9-6.7 2.7-1.6 1.8-2.5 4.3-2.8 7.6h18.7c-.1-3.3-.9-5.8-2.6-7.6-1.5-1.8-3.8-2.7-6.6-2.7zM584.2 46.7c0 6.9-2.2 12.2-6.5 15.8-4.3 3.6-10.4 5.5-18.4 5.5h-5.8v22.8H540v-64h20.5c7.8 0 13.7 1.7 17.7 5s6 8.3 6 14.9zm-30.7 10.2h4.5c4.2 0 7.3-.8 9.4-2.5 2.1-1.6 3.1-4.1 3.1-7.2 0-3.2-.9-5.5-2.6-7.1-1.7-1.5-4.5-2.3-8.2-2.3h-6.2v19.1zM616.9 40.9c1.8 0 3.3.1 4.5.4l-1 12.5c-1.1-.3-2.4-.4-3.9-.4-4.3 0-7.6 1.1-10 3.3-2.4 2.2-3.6 5.3-3.6 9.2v24.9h-13.4v-49h10.1l2 8.2h.7c1.5-2.7 3.6-5 6.2-6.6 2.6-1.6 5.4-2.5 8.4-2.5zM647.6 91.7c-7.9 0-14-2.2-18.5-6.5-4.4-4.3-6.7-10.5-6.7-18.5 0-8.2 2.1-14.5 6.2-19s9.8-6.7 17-6.7c6.9 0 12.3 2 16.2 5.9 3.9 3.9 5.8 9.4 5.8 16.3v6.5H636c.1 3.8 1.3 6.8 3.4 8.9 2.1 2.1 5.1 3.2 8.8 3.2 2.9 0 5.7-.3 8.4-.9 2.6-.6 5.4-1.6 8.2-2.9v10.3c-2.3 1.2-4.8 2-7.5 2.6-2.7.5-5.9.8-9.7.8zm-1.9-41.3c-2.8 0-5.1.9-6.7 2.7-1.6 1.8-2.5 4.3-2.8 7.6H655c-.1-3.3-.9-5.8-2.6-7.6-1.6-1.8-3.9-2.7-6.7-2.7zM709 76.3c0 5-1.7 8.8-5.2 11.5-3.5 2.6-8.7 3.9-15.7 3.9-3.6 0-6.6-.2-9.1-.7-2.5-.5-4.9-1.2-7.1-2.1v-11c2.5 1.2 5.3 2.1 8.4 2.9 3.1.8 5.8 1.2 8.2 1.2 4.8 0 7.3-1.4 7.3-4.2 0-1.1-.3-1.9-1-2.6-.6-.7-1.8-1.4-3.3-2.2-1.6-.8-3.7-1.8-6.3-2.9-3.8-1.6-6.5-3-8.3-4.4-1.8-1.3-3.1-2.9-3.9-4.6-.8-1.7-1.2-3.9-1.2-6.4 0-4.4 1.7-7.7 5.1-10.1 3.4-2.4 8.2-3.6 14.3-3.6 5.9 0 11.6 1.3 17.2 3.9l-4 9.6c-2.5-1.1-4.7-1.9-6.9-2.6-2.1-.7-4.3-1-6.5-1-3.9 0-5.9 1.1-5.9 3.2 0 1.2.6 2.2 1.9 3.1 1.3.9 4.1 2.2 8.3 3.9 3.8 1.5 6.6 3 8.4 4.3 1.8 1.3 3.1 2.9 3.9 4.6 1 1.8 1.4 3.8 1.4 6.3zM750 76.3c0 5-1.7 8.8-5.2 11.5-3.5 2.6-8.7 3.9-15.7 3.9-3.6 0-6.6-.2-9.1-.7-2.5-.5-4.9-1.2-7.1-2.1v-11c2.5 1.2 5.3 2.1 8.4 2.9 3.1.8 5.8 1.2 8.2 1.2 4.8 0 7.3-1.4 7.3-4.2 0-1.1-.3-1.9-1-2.6-.6-.7-1.8-1.4-3.3-2.2-1.6-.8-3.7-1.8-6.3-2.9-3.8-1.6-6.5-3-8.3-4.4-1.8-1.3-3.1-2.9-3.9-4.6-.8-1.7-1.2-3.9-1.2-6.4 0-4.4 1.7-7.7 5.1-10.1 3.4-2.4 8.2-3.6 14.3-3.6 5.9 0 11.6 1.3 17.2 3.9l-4 9.6c-2.5-1.1-4.7-1.9-6.9-2.6-2.1-.7-4.3-1-6.5-1-3.9 0-5.9 1.1-5.9 3.2 0 1.2.6 2.2 1.9 3.1 1.3.9 4.1 2.2 8.3 3.9 3.8 1.5 6.6 3 8.4 4.3 1.8 1.3 3.1 2.9 3.9 4.6 1 1.8 1.4 3.8 1.4 6.3z"></path>
</svg>