<svg xmlns="http://www.w3.org/2000/svg" viewBox="0 0 321 321">
    <g fill="none" fill-rule="evenodd">
        <g fill="#000" fill-rule="nonzero" transform="translate(432.44 55.56)">
            <path d="M0,202.44 L62.44,202.44 C97.44,202.44 126,179.76 126,144.76 C126,123.76 114.24,107.8 94.92,99.68 C109.76,91.56 119.56,76.16 119.56,57.4 C119.56,27.16 95.76,6.44 57.68,6.44 L0,6.44 L0,202.44 Z M31.08,88.48 L31.08,33.6 L58.52,33.6 C76.44,33.6 87.64,43.96 87.64,60.48 C87.64,77.28 75.6,88.48 58.8,88.48 L31.08,88.48 Z M31.08,175.56 L31.08,113.96 L59.36,113.96 C78.68,113.96 93.8,123.76 93.8,144.76 C93.8,165.2 78.96,175.56 59.36,175.56 L31.08,175.56 Z" />
            <polygon points="144.88 202.44 175.4 202.44 175.4 0 144.88 0" />
            <path d="M223.4 129.64C223.4 101.08 242.44 79.8 269.88 79.8 297.04 79.8 316.92 100.8 316.92 129.36 316.92 157.92 297.04 178.92 269.88 178.92 242.72 178.92 223.4 158.48 223.4 129.64ZM192.6 129.64C192.6 173.88 225.08 206.08 269.88 206.08 314.4 206.08 347.44 173.32 347.44 129.36 347.44 85.4 314.96 52.64 269.88 52.64 225.92 52.64 192.6 85.4 192.6 129.64ZM480.56 70.56C472.16 63.28 455.92 52.64 431.84 52.64 388.44 52.64 355.68 85.68 355.68 129.36 355.68 173.32 387.6 206.08 432.12 206.08 456.48 206.08 473.28 194.32 480.56 187.88L471.88 162.68C465.72 168.28 452.56 178.92 433.8 178.92 406.64 178.92 386.48 157.36 386.48 129.36 386.48 101.64 404.96 80.36 432.68 80.36 451.16 80.36 464.6 89.88 471.32 96.32L480.56 70.56Z" />
            <polygon points="496.92 202.44 527.44 202.44 527.44 125.72 584 202.44 620.12 202.44 557.68 122.36 616.2 56.28 581.48 56.28 527.44 118.72 527.44 0 496.92 0" />
            <path d="M619.96 176.96C627.24 190.12 642.92 206.08 672.6 206.08 702.56 206.08 725.52 188.44 725.52 161.28 725.52 109.76 654.12 121.52 654.12 93.52 654.12 83.44 662.52 77.56 673.72 77.56 689.96 77.56 697.8 87.08 702 93.8L723 79.8C717.4 68.6 702.84 52.64 675.4 52.64 647.12 52.64 625.28 68.32 625.28 94.08 625.28 144.76 696.4 134.68 696.4 162.68 696.4 174.44 686.88 180.88 674 180.88 655.8 180.88 645.72 171.64 639 161.84L619.96 176.96ZM744.12 56.28 727.88 56.28 727.88 81.48 744.12 81.48 744.12 144.76C744.12 180.6 754.76 204.4 790.32 204.4 799.84 204.4 805.16 203.28 805.16 203.28L805.16 176.96C805.16 176.96 801.8 177.24 799.28 177.24 783.04 177.24 774.36 172.2 774.36 149.52L774.36 81.48 804.04 81.48 804.04 56.28 774.36 56.28 774.36 25.76 744.12 25.76 744.12 56.28ZM871.36 206.08C890.96 206.08 906.08 195.16 912.52 183.4L912.52 202.44 942.48 202.44 942.48 56.28 911.96 56.28 911.96 144.48C911.96 164.64 899.36 178.64 880.04 178.64 863.24 178.64 850.64 166.88 850.64 146.72L850.64 56.28 820.4 56.28 820.4 144.2C820.4 176.12 833.56 206.08 871.36 206.08ZM1105.84 0 1075.32 0 1075.32 75.88C1071.4 69.44 1055.72 52.64 1028 52.64 986.28 52.64 958.56 84.56 958.56 129.64 958.56 174.44 988.24 206.08 1029.96 206.08 1058.24 206.08 1073.08 188.44 1077 183.4L1077 202.44 1105.84 202.44 1105.84 0ZM1076.44 129.92C1076.44 156.8 1059.92 179.2 1033.04 179.2 1008.12 179.2 989.36 159.88 989.36 129.92 989.36 100.52 1007.28 79.8 1032.76 79.8 1057.12 79.8 1076.44 98 1076.44 129.92ZM1132 202.44 1162.52 202.44 1162.52 56.28 1132 56.28 1132 202.44ZM1128.08 20.16C1128.08 30.8 1136.48 39.2 1147.12 39.2 1157.76 39.2 1166.16 30.8 1166.16 20.16 1166.16 9.52 1157.76 1.12 1147.12 1.12 1136.48 1.12 1128.08 9.52 1128.08 20.16ZM1210.52 129.64C1210.52 101.08 1229.56 79.8 1257 79.8 1284.16 79.8 1304.04 100.8 1304.04 129.36 1304.04 157.92 1284.16 178.92 1257 178.92 1229.84 178.92 1210.52 158.48 1210.52 129.64ZM1179.72 129.64C1179.72 173.88 1212.2 206.08 1257 206.08 1301.52 206.08 1334.56 173.32 1334.56 129.36 1334.56 85.4 1302.08 52.64 1257 52.64 1213.04 52.64 1179.72 85.4 1179.72 129.64Z" />
        </g>
        <path fill="#7C3AED" d="M160,0 C31.9874065,0 0,31.9874065 0,160 C0,288.012593 31.9874065,320 160,320 C288.012593,320 320,288.012593 320,160 C320,31.9874065 288.012593,0 160,0 Z" />
        <g transform="translate(26.852 26.852)">
            <path fill="#FFF" d="M108.71467,-8.55824706e-15 C21.7343771,-8.55824706e-15 2.72154655e-15,21.7343771 2.72154655e-15,108.71467 C2.72154655e-15,195.694962 21.7343771,217.42934 108.71467,217.42934 C195.694962,217.42934 217.42934,195.694962 217.42934,108.71467 C217.42934,21.7343771 195.694962,-8.55824706e-15 108.71467,-8.55824706e-15 Z" transform="rotate(-75 136.852 105.01)" />
            <path fill="#7C3AED" d="M54.1044762,-3.34526761e-15 C10.8166367,-3.34526761e-15 -1.08457365e-14,10.8166367 -1.08457365e-14,54.1044762 C-1.08457365e-14,97.3923156 10.8166367,108.208952 54.1044762,108.208952 C97.3923156,108.208952 108.208952,97.3923156 108.208952,54.1044762 C108.208952,10.8166367 97.3923156,-3.34526761e-15 54.1044762,-3.34526761e-15 Z" transform="rotate(-45 189.166 -1.482)" />
        </g>
    </g>
</svg>