<svg xmlns="http://www.w3.org/2000/svg" viewBox="0 0 30 30">
    <defs>
        <style>
            .a {
                fill: transparent;
            }

            .b {
                fill: #54ffb9;
            }
        </style>
    </defs>
    <title>Logo Tiny White</title>
    <path class="a" d="M32.41,13.27H28.73V10H39.88v3.26h-3.7v13H32.41Z" />
    <path class="a" d="M44.28,9.1A2.26,2.26,0,1,1,42,11.36,2.26,2.26,0,0,1,44.28,9.1Zm-1.77,6h3.56V26.3H42.51Z" />
    <path class="a" d="M62.61,26.3V20.25c0-1.51-.51-2.42-1.72-2.42S59,18.51,59,20.67V26.3H55.55V20.23c0-1.51-.49-2.4-1.68-2.4s-1.93.7-1.93,2.91V26.3H48.5V15.09h3.44v1.63a3.51,3.51,0,0,1,3.24-1.91,3.28,3.28,0,0,1,3.4,2,3.83,3.83,0,0,1,3.51-2C65.35,14.81,66,17,66,19.39V26.3Z" />
    <path class="a" d="M72,26.3H68.45V10H72v6.68a4.06,4.06,0,0,1,3.44-1.89c3.24,0,5.47,2.54,5.47,5.89s-2.23,5.89-5.47,5.89A4,4,0,0,1,72,24.72Zm5.35-5.61a2.68,2.68,0,1,0-5.35,0,2.68,2.68,0,1,0,5.35,0Z" />
    <path class="a" d="M86.31,21.56c.07,1.35.63,2.49,2.49,2.49a1.92,1.92,0,0,0,2.07-1.28h3.49C94,24.88,92,26.61,88.82,26.61c-3.93,0-6.05-2.44-6.05-5.91a5.58,5.58,0,0,1,6-5.91c3.51,0,5.77,2.37,5.77,5.12a9,9,0,0,1-.12,1.65Zm0-2H91a2.35,2.35,0,0,0-4.7,0Z" />
    <path class="a" d="M104.45,18.32a4.67,4.67,0,0,0-1.26-.16c-2,0-3.24,1-3.24,3.77V26.3H96.4V15.09H100V16.9a3.91,3.91,0,0,1,3.42-2,2.52,2.52,0,0,1,1.07.19Z" />
    <polygon class="b" points="24.65 26.39 23.09 24.39 14.12 24.39 14.12 22.24 21.42 22.24 19.87 20.24 14.12 20.24 14.12 18.09 21.73 18.09 20.29 16.09 14.12 16.09 14.12 13.94 18.75 13.94 17.31 11.94 14.12 11.94 14.12 9.79 18.5 9.79 17.09 7.79 14.12 7.79 14.12 5.64 15.57 5.64 14.16 3.64 14.12 3.64 14.12 0 7.54 9.17 11.24 9.18 3.77 19.59 7.62 19.59 0 30 14.12 30 14.12 26.39 24.65 26.39" />
</svg>