<?xml version="1.0" encoding="UTF-8"?> <svg xmlns="http://www.w3.org/2000/svg" width="512" height="512" viewBox="0 0 512 512" fill="none"><path fill-rule="evenodd" clip-rule="evenodd" d="M 355.332031 463.945312 C 362.226562 470.832031 370.421875 476.410156 379.515625 480.285156 C 388.757812 484.222656 398.925781 486.398438 409.601562 486.398438 C 452.015625 486.398438 486.398438 452.015625 486.398438 409.601562 C 486.398438 398.925781 484.222656 388.757812 480.285156 379.515625 C 476.410156 370.421875 470.832031 362.226562 463.945312 355.332031 C 450.046875 341.410156 430.828125 332.800781 409.601562 332.800781 C 367.183594 332.800781 332.800781 367.183594 332.800781 409.601562 C 332.800781 430.828125 341.410156 450.046875 355.332031 463.945312 Z M 474.210938 330.152344 C 456.585938 315.800781 434.097656 307.199219 409.601562 307.199219 C 353.046875 307.199219 307.199219 353.046875 307.199219 409.601562 C 307.199219 434.097656 315.800781 456.585938 330.152344 474.210938 C 306.882812 482.113281 281.941406 486.398438 256 486.398438 C 128.753906 486.398438 25.601562 383.246094 25.601562 256 C 25.601562 128.753906 128.753906 25.601562 256 25.601562 C 383.246094 25.601562 486.398438 128.753906 486.398438 256 C 486.398438 281.941406 482.113281 306.882812 474.210938 330.152344 Z M 493.71875 351.1875 C 505.511719 321.765625 512 289.640625 512 256 C 512 114.613281 397.382812 0 256 0 C 114.613281 0 0 114.613281 0 256 C 0 397.382812 114.613281 512 256 512 C 289.640625 512 321.765625 505.511719 351.1875 493.71875 C 367.757812 505.246094 387.886719 512 409.601562 512 C 466.152344 512 512 466.152344 512 409.601562 C 512 387.886719 505.246094 367.757812 493.71875 351.1875 Z M 493.71875 351.1875" fill="#7660e3"></path></svg> 