<?xml version="1.0" encoding="UTF-8"?>
<svg viewBox="0 0 1227 1265" version="1.1" xmlns="http://www.w3.org/2000/svg" xmlns:xlink="http://www.w3.org/1999/xlink" xml:space="preserve" xmlns:serif="http://www.serif.com/" style="color:#0198cd;fill-rule:evenodd;clip-rule:evenodd;stroke-linejoin:round;stroke-miterlimit:2;">
    <g transform="matrix(1,0,0,1,-451.312,-394.938)">
        <g transform="matrix(35.0279,0,0,35.0279,451.315,394.938)">
            <g>
                <g>
                    <path d="M32.959,23.102L30.93,25.546C30.612,25.935 29.857,26.089 29.409,25.859L23.321,22.729C23.306,22.719 23.293,22.712 23.28,22.706C23.293,22.696 23.306,22.69 23.321,22.684L28.489,19.91C29.027,19.623 30.112,19.623 30.652,19.907L31.216,20.207C31.923,20.582 32.857,21.331 33.218,21.812C33.371,22.017 33.347,22.634 32.959,23.102M24.427,33.394C24.112,33.778 23.384,33.915 22.948,33.678L22.684,33.533L21.692,32.982C21.618,32.945 21.571,32.906 21.542,32.881C21.571,32.85 21.617,32.814 21.684,32.77L28.375,28.642L24.427,33.394ZM12.687,34.387C12.018,34.387 11.014,33.913 10.584,33.394L8.759,31.195C8.643,31.049 8.592,30.895 8.62,30.756C8.646,30.617 8.751,30.492 8.915,30.407L10.129,29.754C10.393,29.615 10.776,29.531 11.187,29.531C11.601,29.531 12.009,29.621 12.275,29.767L20.663,34.387L12.687,34.387ZM3.784,25.19L9.314,28.158C9.342,28.174 9.365,28.187 9.384,28.197C9.365,28.21 9.342,28.224 9.314,28.236L8.102,28.887C7.953,28.965 7.771,29.008 7.573,29.008C7.194,29.008 6.813,28.848 6.604,28.597L3.784,25.19ZM2.017,21.516L5.668,16.648C5.959,16.258 6.663,16.093 7.099,16.321L10.146,17.888C10.164,17.897 10.179,17.904 10.191,17.912C10.179,17.921 10.164,17.931 10.146,17.937L3.127,21.723C2.722,21.941 2.209,22.08 1.816,22.08C1.785,22.08 1.76,22.08 1.734,22.075C1.765,21.946 1.845,21.743 2.017,21.516M7.691,13.947L10.479,10.234C10.674,9.976 11.037,9.808 11.406,9.808C11.583,9.808 11.751,9.845 11.891,9.92L14.404,11.259L14.405,11.259L18.445,13.41C18.45,13.41 18.453,13.413 18.457,13.416C18.479,13.425 18.498,13.44 18.512,13.449C18.496,13.459 18.475,13.473 18.451,13.484L13.126,16.338C12.85,16.483 12.432,16.571 12.006,16.571C11.589,16.571 11.2,16.493 10.934,16.358L7.887,14.788C7.716,14.703 7.604,14.57 7.568,14.418C7.534,14.267 7.578,14.102 7.691,13.947M12.525,7.576C14.402,5.205 16.721,2.498 17.557,1.811C18.061,2.166 19.133,3.261 20.053,4.384C20.172,4.528 20.221,4.684 20.191,4.825C20.165,4.964 20.058,5.084 19.896,5.176L14.016,8.301C13.483,8.459 12.777,8.442 12.465,8.278C12.394,8.238 12.356,8.191 12.341,8.116C12.315,8.001 12.352,7.796 12.525,7.576M24.112,9.676C24.228,9.831 24.272,10.002 24.238,10.158C24.203,10.318 24.092,10.454 23.921,10.547L21.421,11.886C20.886,12.176 19.803,12.176 19.263,11.892L19.261,11.889L15.212,9.735C15.188,9.725 15.167,9.713 15.148,9.7C15.167,9.69 15.19,9.676 15.212,9.663L20.71,6.701C21.135,6.471 21.824,6.626 22.114,7.012L24.112,9.676ZM30.105,17.663L28.492,16.803C28.487,16.803 28.487,16.803 28.486,16.799L22.241,13.478C22.24,13.476 22.237,13.476 22.232,13.476C22.21,13.462 22.19,13.453 22.175,13.44C22.19,13.43 22.212,13.416 22.237,13.403L24.734,12.063C25.16,11.837 25.851,11.992 26.141,12.373L30.105,17.663ZM21.388,21.4C20.975,21.4 20.585,21.322 20.318,21.182L13.939,17.902C13.924,17.894 13.91,17.888 13.896,17.878C13.91,17.874 13.924,17.864 13.939,17.855L19.263,15.002C19.801,14.716 20.885,14.712 21.426,14.996L21.43,14.996L27.69,18.331C27.71,18.337 27.724,18.346 27.74,18.356C27.72,18.369 27.698,18.38 27.676,18.393L22.507,21.165C22.232,21.312 21.813,21.4 21.388,21.4M27.653,26.891C27.703,26.921 27.746,26.947 27.775,26.968C27.747,26.993 27.71,27.024 27.657,27.056L20.781,31.304C20.283,31.613 19.246,31.637 18.732,31.352L13.105,28.256C13.073,28.239 13.045,28.224 13.024,28.207C13.047,28.193 13.073,28.178 13.105,28.158L20.344,24.279C20.885,23.989 21.988,23.982 22.533,24.26L24.795,25.423L27.653,26.891ZM3.938,23.315C3.914,23.307 3.889,23.293 3.872,23.28C3.893,23.267 3.916,23.253 3.942,23.237L10.963,19.455C11.501,19.164 12.607,19.154 13.149,19.435L19.529,22.716C19.545,22.722 19.558,22.729 19.572,22.739C19.558,22.742 19.545,22.751 19.529,22.762L12.293,26.64C11.753,26.932 10.668,26.932 10.129,26.64L3.938,23.315ZM34.597,20.777C34.306,20.391 33.81,19.929 33.271,19.508C33.271,19.013 32.938,18.568 32.791,18.369L27.518,11.341C27.135,10.834 26.574,10.477 25.942,10.323C26.014,9.739 25.86,9.136 25.49,8.641L23.49,5.976C23.105,5.46 22.537,5.105 21.897,4.949C21.952,4.37 21.782,3.776 21.383,3.291C18.684,-0 17.796,-0 17.507,-0C17.091,-0 16.321,-0 11.175,6.507C10.775,7.015 10.591,7.616 10.631,8.189C10.019,8.354 9.474,8.703 9.1,9.202L6.315,12.914C5.945,13.41 5.794,14.006 5.864,14.587C5.231,14.748 4.672,15.104 4.289,15.616L0.638,20.483C0.118,21.176 -0.099,21.945 0.042,22.584C0.074,22.727 0.127,22.854 0.19,22.973C0.156,23.501 0.542,23.977 0.728,24.2L5.279,29.694C5.683,30.179 6.265,30.518 6.909,30.66C6.864,31.234 7.04,31.817 7.437,32.293L9.26,34.493C10.022,35.414 11.495,36.105 12.687,36.105L22.322,36.105C23.206,36.105 23.614,35.811 23.802,35.489C24.57,35.41 25.282,35.06 25.754,34.497L30.115,29.242C30.441,28.849 30.93,28.154 30.998,27.495C31.49,27.319 31.936,27.036 32.258,26.647L34.282,24.2C35.132,23.177 35.268,21.674 34.597,20.777" style="fill:currentColor;fill-rule:nonzero;"></path>
                </g>
            </g>
        </g>
    </g>
</svg>