<?xml version="1.0" encoding="UTF-8" standalone="no"?><!DOCTYPE svg PUBLIC "-//W3C//DTD SVG 1.1//EN" "http://www.w3.org/Graphics/SVG/1.1/DTD/svg11.dtd"><svg width="100%" height="100%" viewBox="0 0 1600 1200" version="1.1" xmlns="http://www.w3.org/2000/svg" xmlns:xlink="http://www.w3.org/1999/xlink" xml:space="preserve" xmlns:serif="http://www.serif.com/" style="fill-rule:evenodd;clip-rule:evenodd;stroke-linejoin:round;stroke-miterlimit:2;"><path d="M1153.77,1164.99l-322.236,0c-34.89,0 -63.211,-28.33 -63.211,-63.223c-0,-34.883 28.321,-63.213 63.211,-63.213l210.49,-0c32.846,-2.253 58.83,-29.645 58.83,-63.055c0,-34.892 -28.321,-63.213 -63.214,-63.213l-153.894,-0l-0,-0.01l-175.482,0c-34.837,0 -63.126,-28.284 -63.126,-63.12c-0,-34.845 28.289,-63.135 63.126,-63.135l39.762,-0l-0.083,-0.076l59.112,-0c34.824,-0 63.098,-28.271 63.098,-63.096c0,-34.824 -28.274,-63.095 -63.098,-63.095l-148.673,-0l0,-0.057l-311.77,0c-34.824,0 -63.102,-28.277 -63.102,-63.107c-0,-34.825 28.278,-63.102 63.102,-63.102l311.77,-0l0,-0.177l122.068,0c34.793,0 63.043,-28.246 63.043,-63.045c0,-34.793 -28.25,-63.044 -63.043,-63.044l-27.822,-0l0.006,-0.007l-129.638,-0c-34.843,-0 -63.126,-28.29 -63.126,-63.127c-0,-34.843 28.283,-63.133 63.126,-63.133l299.35,-0c1.493,-0 2.966,0.05 4.431,0.152l107.005,-0c34.883,-0 63.205,-28.323 63.205,-63.209c-0,-34.888 -28.322,-63.209 -63.205,-63.209l-157.293,-0c-32.733,-2.374 -58.587,-29.718 -58.587,-63.052c-0,-34.887 28.323,-63.215 63.215,-63.215l247.767,-0c0.273,-0 0.545,-0 0.836,0.006l292.14,0l-511.886,559.019l619.145,577.6l-373.678,-0l-0.085,-0.085c-0.525,0.019 -1.051,0.028 -1.586,0.028Zm-606.521,-126.436c34.768,-0 62.995,28.227 62.995,62.988c-0,34.77 -28.227,62.988 -62.995,62.988l-231.156,0c-34.761,0 -62.987,-28.218 -62.987,-62.988c-0,-34.761 28.226,-62.988 62.987,-62.988l231.156,-0Zm-91.511,-252.533c34.868,-0 63.177,28.309 63.177,63.182c-0,34.865 -28.309,63.176 -63.177,63.176c-34.875,0 -63.184,-28.311 -63.184,-63.176c0,-34.873 28.309,-63.182 63.184,-63.182Zm-330.111,-252.533c34.874,-0 63.183,28.309 63.183,63.183c0,34.868 -28.309,63.177 -63.183,63.177c-34.868,0 -63.177,-28.309 -63.177,-63.177c-0,-34.874 28.309,-63.183 63.177,-63.183Zm244.843,-252.533c34.869,-0 63.183,28.309 63.183,63.183c0,34.869 -28.314,63.177 -63.183,63.177c-34.868,0 -63.184,-28.308 -63.184,-63.177c0,-34.874 28.316,-63.183 63.184,-63.183Zm226.579,-252.533c34.767,-0 62.988,28.227 62.988,62.988c0,34.768 -28.221,62.994 -62.988,62.994l-146.116,0c-34.761,0 -62.988,-28.226 -62.988,-62.994c0,-34.761 28.221,-62.988 62.988,-62.988l146.116,-0Z" style="fill:url(#_Linear1);"/><defs><linearGradient id="_Linear1" x1="0" y1="0" x2="1" y2="0" gradientUnits="userSpaceOnUse" gradientTransform="matrix(6.99577e-14,1142.5,-885.4,5.42151e-14,751.517,30.302)"><stop offset="0" style="stop-color:#0073e6;stop-opacity:1"/><stop offset="1" style="stop-color:#005ab3;stop-opacity:1"/></linearGradient></defs></svg>