<?xml version="1.0" encoding="UTF-8"?> <svg xmlns="http://www.w3.org/2000/svg" width="214" height="214" viewBox="0 0 214 214" fill="none"><path d="M90.5945 152.785L15.0991 152.788C6.79932 152.783 0.00168316 145.749 0 137.503C0.00673626 129.26 6.80485 122.231 15.1022 122.228H45.4003C53.6597 122.169 60.3963 115.155 60.3995 106.949V15.2757C60.4045 7.03374 67.1998 0.00520583 75.4954 0C83.7923 0.00347052 90.5895 7.03255 90.5945 15.2757V58.4825C90.5995 66.6105 97.7433 73.7532 105.69 73.7582C113.989 73.7547 120.786 66.7236 120.79 58.4793V15.2757C120.795 7.03254 127.592 0.00347051 135.889 0C144.186 0.00346876 150.984 7.03204 150.991 15.2757V198.625C150.986 206.87 144.187 213.9 135.889 213.904C127.591 213.9 120.793 206.869 120.79 198.625V183.346C120.79 166.477 107.259 152.785 90.5945 152.785Z" fill="black"></path><path d="M87.1443 208.61C99.0463 208.61 108.695 198.846 108.695 186.803C108.695 174.759 99.0463 164.996 87.1443 164.996C75.2423 164.996 65.5939 174.759 65.5939 186.803C65.5939 198.846 75.2423 208.61 87.1443 208.61Z" fill="black"></path></svg> 