<?xml version="1.0" encoding="UTF-8"?> <svg xmlns="http://www.w3.org/2000/svg" viewBox="0 0 170 170" width="170px" height="170px"><g id="Page-1" stroke="none" stroke-width="1" fill="none" fill-rule="evenodd" transform="matrix(1, 0, 0, 1, 3.09616, -81.907357)"><g id="Horizontal-Light"><path d="M166.887,217.5506 C166.887,223.5836 137.207,228.4746 100.596,228.4746 C63.984,228.4746 34.305,223.5836 34.305,217.5506 C34.305,211.5186 63.984,206.6276 100.596,206.6276 C137.207,206.6276 166.887,211.5186 166.887,217.5506" id="Fill-59" fill="#ECE1DA"></path><path d="M80.4832,215.8211 C94.2412,215.4721 111.6882,222.5081 122.9332,214.7241 C125.4732,212.9671 124.1072,211.7441 123.9332,211.9271 C113.2812,223.2581 98.8002,213.8191 78.3522,212.7971 C78.2132,212.7901 80.4702,215.6581 80.4832,215.8211" id="Fill-60" fill="#3E0000"></path><path d="M60.888,142.203 C52.659,132.959 39.72,133.963 33.442,137.558 C24.719,142.556 8.446,160.865 18.717,170.487 C25.489,176.832 26.886,181.148 36.752,187.065 C42.098,190.271 48.627,197.868 56.012,202.125 C59.793,204.305 65.671,207.458 66.164,211.746 C66.976,218.811 76.844,220.223 85.627,219.745 C87.346,219.652 82.644,216.119 84.204,215.909 C86.823,215.557 95.441,217.766 97.089,217.972 C105.335,219.005 111.46,219.515 115.941,219.495 C125.453,219.454 128.585,214.92 130.115,213.348 C135.06,208.263 130.163,205.564 128.611,202.86 C128.055,201.893 129.463,200.131 129.756,199.369 C132.172,193.1 133.721,190.886 137.53,185.286 C140.519,180.891 139.769,186.736 142.346,179.438 C148.745,161.318 143.564,173.556 144.416,164.721 C144.721,161.549 155.62,158.115 146.952,143.244 C144.114,138.373 139.181,125.934 133.792,119.614 C128.219,113.08 130.911,118.599 125.919,117.101 C86.622,105.318 107.962,121.512 82.062,114.721 C70.01,111.562 68.748,110.757 66.415,126.886 C65.303,134.574 65.166,131.264 60.888,142.203" id="Fill-61" fill="#AA7B55"></path><path d="M107.3705,197.7967 C114.3995,198.8787 123.4705,191.4347 133.7325,173.0647 C129.8005,221.9707 65.3075,220.3037 52.7545,181.6317 C51.1895,176.8077 54.0965,158.3297 59.3165,147.7007 C73.8555,118.1037 58.5215,146.1767 55.1815,147.6657 C52.8965,148.6847 49.5515,147.7477 48.9485,149.1167 C39.9835,169.4737 35.5855,180.6927 42.4825,190.0137 C48.8345,198.5977 59.7025,201.9137 61.0495,202.8847 C61.4245,203.1527 64.1865,214.8497 69.7065,217.1227 C73.5685,218.7127 78.4745,220.2257 81.9965,219.3887 C83.5855,219.0107 83.7265,216.4317 85.3965,216.1647 C89.3225,215.5347 94.8235,216.5907 95.2555,216.6187 C98.2925,216.8267 110.8925,220.9927 118.9795,219.3137 C128.7945,217.2757 134.1425,209.1927 135.4765,207.8287 C137.2395,206.0257 123.9165,202.7537 125.7945,200.6607 C134.8225,190.6007 143.1265,177.3137 139.2245,170.0547 C139.1035,169.8297 150.0905,163.0207 150.2345,154.5487 C150.3835,145.7927 146.5655,171.1287 123.0235,165.8497 C115.6705,164.2007 116.0685,180.9847 112.1075,180.8127 C85.6765,179.6527 106.5255,194.2177 107.3705,197.7967" id="Fill-62" fill="#8C5D40"></path><path d="M112.5296,156.1063 C112.5856,157.9023 98.3556,162.6863 94.7626,165.4613 C91.3096,168.1303 89.0496,167.0573 88.8426,173.5683 C88.8106,174.5963 92.2636,184.5743 93.0586,186.2133 C96.5216,193.3553 99.8276,197.6173 108.6096,197.0073 C111.1246,196.8343 113.8586,194.8563 115.8646,193.4603 C118.5966,191.5583 126.8266,176.3163 129.9036,172.0753 C135.7146,164.0623 127.6736,165.3323 120.9686,158.4993 C119.9856,157.4983 113.9536,156.1063 112.5296,156.1063" id="Fill-63" fill="#FFFFFF"></path><path d="M112.5296,156.1063 C112.5856,157.1683 100.5956,163.6273 97.0036,165.2703 C93.5506,166.8493 90.2656,162.8553 88.8426,166.4403 C86.3576,172.7013 96.7926,188.0883 97.5866,189.0573 C96.2796,184.8223 93.6056,178.6993 95.5926,175.0913 C97.5956,171.4583 109.0576,166.2303 109.0046,169.9763 C108.9506,173.7773 107.9876,180.7303 106.7966,190.5443 C109.3116,190.4423 114.9776,172.0023 116.4676,170.4333 C118.7716,168.0063 123.5406,170.6613 124.0846,172.7103 C124.6286,174.7573 122.2426,180.6413 116.2586,190.0813 C118.5186,188.2373 128.7526,178.4813 130.2376,173.3363 C132.5676,165.2613 125.0616,160.9673 120.9686,158.4993 C119.9866,157.9083 113.9536,156.1063 112.5296,156.1063" id="Fill-64" fill="#ECE1DA"></path><path d="M68.3328,112.6385 C65.9018,112.7945 68.3668,106.2845 70.9298,103.9875 C80.6818,95.2455 81.0988,97.6445 90.5958,94.3405 C94.5148,92.9785 105.8928,95.3665 109.5078,97.2005 C110.8628,97.8875 113.5918,105.2295 117.3408,106.9305 C122.0508,109.0675 125.3068,115.2405 117.3218,116.4375 C108.8988,117.7005 95.7778,119.0405 88.7198,113.4045 C83.9518,109.5965 86.7788,117.0845 80.3028,114.2575 C80.2908,114.2535 68.3538,112.6365 68.3328,112.6385" id="Fill-65" fill="#FA9339"></path><path d="M89.5365,113.2821 C88.2295,113.3661 93.7445,111.4921 95.1205,110.2581 C100.3635,105.5581 101.0165,108.3411 106.1225,106.5641 C108.2285,105.8331 116.5335,107.8101 118.4765,108.7971 C119.2045,109.1651 119.2925,110.3241 121.3075,111.2371 C123.8395,112.3861 125.6385,114.0131 121.3455,114.6571 C116.8175,115.3371 108.4805,118.3501 104.6865,115.3201 C102.1235,113.2731 103.9565,115.9431 100.1605,115.7801 C98.6625,115.7161 75.5815,112.7241 89.5365,113.2821" id="Fill-66" fill="#8B4519"></path><path d="M44.2811,138.0819 C42.1181,135.5949 21.3031,167.8389 19.4391,169.6619 C15.4541,173.5579 21.3381,175.5619 28.1891,181.2479 C40.1981,191.2159 37.9611,190.2589 46.5791,194.2839 C46.6221,194.1649 46.6201,194.1229 45.8621,193.3759 C45.4371,192.9569 48.5511,184.4899 47.7561,183.7169 C46.9611,182.9429 45.4901,188.0379 43.6481,191.1359 C41.9971,189.5489 39.4451,187.1189 39.5731,186.8039 C42.2391,180.2809 49.5251,164.1499 48.4231,163.4639 C46.9571,162.5529 39.1521,180.9579 36.4941,183.9509 C35.5491,185.0169 33.0221,183.5729 32.2211,182.6959 C31.7251,182.1539 30.9511,181.3549 31.4851,180.1949 C35.7211,171.0069 52.7041,141.6059 51.3421,140.6599 C50.0891,139.7879 35.1301,167.3459 28.9071,175.4889 C26.7461,178.3159 23.9991,173.6019 22.6781,172.6919 C24.5541,170.0309 44.8511,138.7379 44.2811,138.0819" id="Fill-67" fill="#3E0000"></path><path d="M107.2747,149.0106 C107.8727,149.7356 108.4237,150.2996 108.9727,150.8546 C108.3927,149.3066 108.3577,147.5336 108.8867,145.9656 C107.0567,146.6156 106.1407,147.6356 107.2747,149.0106" id="Fill-68" fill="#3E0000"></path><path d="M131.805,135.1551 C132.028,135.1551 132.241,135.1941 132.44,135.2641 C131.761,134.6201 130.844,134.2221 129.834,134.2221 C127.745,134.2221 126.054,135.9161 126.054,138.0031 C126.054,140.0921 127.745,141.7841 129.834,141.7841 C131.922,141.7841 133.615,140.0921 133.615,138.0031 C133.615,137.8821 133.608,137.7621 133.598,137.6451 C133.347,138.3941 132.639,138.9351 131.805,138.9351 C130.761,138.9351 129.914,138.0901 129.914,137.0451 C129.914,136.0011 130.761,135.1551 131.805,135.1551" id="Fill-69" fill="#3E0000"></path><path d="M82.3421,213.3592 C81.8371,212.9832 80.8481,212.4502 80.6651,212.5932 C80.3991,212.8032 82.1211,215.1792 81.3211,216.9622 C80.5191,218.7442 70.1761,215.6962 69.5691,214.4192 C68.9201,213.0552 70.8571,208.6662 70.4611,207.2972 C70.0641,205.9282 66.9321,204.3252 65.0281,203.2932 C49.4751,194.8642 18.6261,170.0602 20.1371,161.1322 C21.5601,152.7252 35.2561,137.2132 38.4131,136.4702 C41.5701,135.7272 53.8361,137.7602 54.1251,136.8582 C54.4451,135.8602 37.7341,129.3042 34.2531,130.3212 C30.9631,131.2802 9.5711,153.1722 8.1581,161.2412 C4.8261,180.2832 55.0551,204.7772 61.6871,208.6652 C63.6491,209.8132 60.1891,214.3542 61.6831,216.8592 C63.6441,220.1412 87.2641,222.5112 87.7301,220.4222 C88.1101,218.7212 84.5661,215.0102 82.3421,213.3592" id="Fill-70" fill="#3E0000"></path><path d="M110.9422,195.1024 C110.0252,195.5694 108.4022,195.7474 106.7662,195.7154 C111.0242,185.0454 115.4732,173.0534 117.6142,158.6194 C120.7522,162.3824 125.5242,167.1644 129.2232,169.2304 C127.0712,176.7224 115.1502,192.9594 110.9422,195.1024 M104.8602,195.5834 C103.6192,195.4354 102.5442,195.1714 101.9952,194.8344 C98.9152,192.9394 92.4552,180.3714 90.8802,171.8674 C96.4462,170.9104 107.1562,164.2594 112.2702,159.0754 C111.1712,170.8104 107.9662,183.6374 104.8602,195.5834 M104.0872,112.4334 C99.2972,112.5254 94.4922,112.8214 90.7882,113.0574 C98.7812,106.7414 117.8762,105.6744 119.8722,112.6064 C115.9712,112.5894 110.2552,112.3164 104.0872,112.4334 M83.0242,112.3164 C81.0822,110.1204 77.5662,105.1764 75.4132,105.1274 C74.5522,105.1074 72.5452,106.3424 70.2252,108.0894 C71.2782,100.5584 81.7442,96.3214 91.5062,95.4924 C93.8802,97.3614 95.8912,99.4934 98.5562,105.3374 C94.0182,105.5524 90.3742,105.9794 89.1362,106.6504 C86.9342,107.8454 84.6802,110.0554 83.0242,112.3164 M107.1132,98.4154 C108.3492,99.4964 110.6212,102.4864 112.1252,105.2584 C109.3132,105.1734 106.3412,105.1504 103.4912,105.1904 C101.3222,100.6034 98.8372,97.6794 96.1712,95.3584 C100.8512,95.4994 104.9322,96.5134 107.1132,98.4154 M136.1502,119.3124 C136.1132,116.9964 139.9472,114.7114 139.6272,111.7924 C139.4122,109.8204 131.1202,105.9914 129.2462,106.7684 C127.7782,107.3774 126.8982,109.9964 125.6522,111.4244 C126.1452,109.5084 126.3332,107.6134 125.7402,106.8874 C125.2412,106.2764 121.9922,105.8074 117.6102,105.5154 C116.0052,101.8714 112.4032,97.9144 109.9862,95.7284 C107.4872,93.4674 101.0982,92.8294 93.9092,93.5394 L93.9082,93.5394 C93.1742,92.9884 92.8862,92.8834 91.0942,93.1164 C89.4262,93.3314 89.3032,93.7444 89.6762,94.0994 C79.1492,95.8394 68.2092,100.2144 65.8062,106.4344 C65.3702,107.5634 65.0662,109.6314 65.1812,112.2484 C61.9352,115.1424 59.1992,118.0174 59.1682,118.9154 C59.0992,120.9184 62.6502,123.7714 62.9122,125.2654 C63.1732,126.7594 56.5212,136.9464 52.5252,150.9964 C47.6122,168.2654 50.5412,192.1114 65.9222,191.9844 C74.2552,191.9144 72.1972,179.2264 66.5362,179.4754 C64.8592,179.5494 65.8192,189.8414 62.0092,188.1494 C55.2542,185.1474 54.3282,167.2604 59.2182,154.8534 C69.0742,129.8494 72.8772,128.5094 72.5742,126.7214 C72.2712,124.9334 68.4062,121.8334 68.3122,120.6234 C68.2032,119.2204 73.8292,113.8384 75.5232,114.4294 C77.0082,114.9474 79.4422,120.6394 81.5352,121.0104 C83.3882,121.3394 118.7282,115.1234 127.2322,118.9674 C135.7362,122.8114 148.3002,151.0514 147.3532,153.9814 C146.4052,156.9104 138.5012,161.9704 131.3632,161.6334 C126.3812,161.3984 119.8662,156.8654 117.0812,154.4404 C117.1492,154.4004 117.2122,154.3414 117.2792,154.2964 C116.5452,154.5944 115.7172,154.7794 114.7672,154.7794 C113.8752,154.7794 113.0992,154.6064 112.3972,154.3424 C108.3652,157.7154 101.2352,162.2744 94.8922,162.6914 C86.5962,163.2334 78.4022,157.6784 77.0582,155.2694 C75.5372,152.5424 81.1702,142.1294 80.3772,141.4794 C78.7792,140.1684 64.2922,155.6434 65.8952,161.0694 C67.1112,165.1834 76.1702,169.3474 83.4982,171.1104 C85.3542,177.8894 93.5632,194.3634 96.3422,196.1734 C99.3062,198.1044 108.0032,198.8254 111.6612,197.3204 C115.8372,195.6024 129.3772,181.8994 133.4852,170.2594 C134.7962,170.1714 136.3582,169.8534 138.0292,169.3664 C136.5172,192.3264 114.9362,208.2524 115.7572,209.7724 C116.5942,211.3214 128.9452,207.5884 130.4292,209.0774 C131.8012,210.4534 125.8112,217.0434 126.1762,217.1984 C126.5412,217.3524 141.0052,207.7594 139.9152,203.8744 C139.2772,201.6024 130.3412,202.7734 129.8212,201.8604 C129.3262,200.9884 145.2412,189.8334 148.9402,164.4794 C151.5412,162.8584 153.5562,161.1294 154.2372,159.6214 C156.3312,154.9874 136.1582,119.9144 136.1502,119.3124" id="Fill-71" fill="#3E0000"></path><path d="M98.0184,135.1532 C98.2424,135.1532 98.4564,135.1922 98.6554,135.2642 C97.9764,134.6182 97.0594,134.2212 96.0494,134.2212 C93.9614,134.2212 92.2684,135.9152 92.2684,138.0032 C92.2684,140.0902 93.9614,141.7832 96.0494,141.7832 C98.1374,141.7832 99.8294,140.0902 99.8294,138.0032 C99.8294,137.8822 99.8234,137.7612 99.8124,137.6432 C99.6054,138.2642 99.0844,138.7422 98.4364,138.8872 C98.3014,138.9182 98.1624,138.9332 98.0184,138.9332 C96.9754,138.9332 96.1294,138.0892 96.1294,137.0442 C96.1294,136.4782 96.3764,135.9702 96.7694,135.6252 C97.1034,135.3312 97.5404,135.1532 98.0184,135.1532" id="Fill-72" fill="#3E0000"></path><path d="M129.8861,141.7244 C131.9431,141.7244 133.6201,140.0464 133.6201,137.9904 C133.6201,135.9334 131.9431,134.2544 129.8861,134.2544 C127.8291,134.2544 126.1511,135.9334 126.1511,137.9904 C126.1511,140.0464 127.8291,141.7244 129.8861,141.7244" id="Fill-73" fill="#3E0000"></path><path d="M129.8871,140.1727 C131.0901,140.1727 132.0691,139.1927 132.0691,137.9897 C132.0691,136.7877 131.0901,135.8067 129.8871,135.8067 C128.6841,135.8067 127.7031,136.7877 127.7031,137.9897 C127.7031,139.1927 128.6841,140.1727 129.8871,140.1727" id="Fill-74" fill="#000000"></path><path d="M131.8104,137.8416 C132.4174,137.8416 132.9114,137.3476 132.9114,136.7406 C132.9114,136.1346 132.4174,135.6396 131.8104,135.6396 C131.2044,135.6396 130.7084,136.1346 130.7084,136.7406 C130.7084,137.3476 131.2044,137.8416 131.8104,137.8416" id="Fill-75" fill="#FFFFFF"></path><path d="M96.1224,141.7381 C98.1794,141.7381 99.8564,140.0601 99.8564,138.0041 C99.8564,135.9471 98.1794,134.2681 96.1224,134.2681 C94.0654,134.2681 92.3874,135.9471 92.3874,138.0041 C92.3874,140.0601 94.0654,141.7381 96.1224,141.7381" id="Fill-76" fill="#3E0000"></path><path d="M96.1234,140.1864 C97.3264,140.1864 98.3054,139.2074 98.3054,138.0034 C98.3054,136.8014 97.3264,135.8204 96.1234,135.8204 C94.9204,135.8204 93.9394,136.8014 93.9394,138.0034 C93.9394,139.2074 94.9204,140.1864 96.1234,140.1864" id="Fill-77" fill="#000000"></path><path d="M98.0467,137.8553 C98.6527,137.8553 99.1477,137.3613 99.1477,136.7543 C99.1477,136.1483 98.6527,135.6533 98.0467,135.6533 C97.4407,135.6533 96.9447,136.1483 96.9447,136.7543 C96.9447,137.3613 97.4407,137.8553 98.0467,137.8553" id="Fill-78" fill="#FFFFFF"></path><path d="M112.431,154.3377 C112.141,154.1487 113.463,152.4087 113.747,151.1437 C114.124,149.4657 112.713,149.1377 111.715,149.3467 C109.855,149.7367 111.153,151.8337 111.564,152.6217 C111.902,153.2697 111.668,153.6707 110.602,152.5667 C110.067,152.0127 109.608,151.4967 109.128,151.0117 C108.533,150.4117 107.936,149.8087 107.288,149.0227 C103.314,144.2037 124.471,143.7367 122.18,148.3117 C121.341,149.9847 120.29,151.1897 119.102,152.5637 C117.329,154.6137 119.317,151.0407 119.331,150.2317 C119.349,149.2477 118.772,149.3787 118.38,149.7527 C117.419,150.6657 119.359,154.7177 115.145,155.0097 C114.155,155.0787 113.131,154.8717 112.431,154.3377" id="Fill-79" fill="#000000"></path><path d="M40.7059,136.3045 C48.3939,136.8155 53.7009,138.4635 61.3279,141.0905 C58.8689,138.2585 55.1249,136.7575 48.2579,133.8275 C45.3299,132.5775 42.3589,134.5855 40.7059,136.3045" id="Fill-80" fill="#3E0000"></path><path d="M52.39,183.7801 C50.811,186.6721 20.049,161.3431 17.838,159.9621 C13.112,157.0111 19.5,151.1231 24.971,144.1031 C34.564,131.7971 29.249,139.1531 36.805,133.3771 C36.86,133.4631 48.084,143.3501 47.761,143.7421 C47.309,144.2901 35.331,135.6461 34.62,136.4231 C33.381,137.7731 32.16,139.1491 32.411,139.4151 C36.965,144.2411 50.103,153.2381 48.98,154.4701 C47.439,156.1621 34.626,145.1741 30.892,142.5471 C27.672,140.2811 26.246,146.0751 26.814,146.8271 C32.918,154.8941 54.951,170.5071 53.826,171.7211 C52.789,172.8401 33.537,158.5191 25.207,152.0651 C22.395,149.8871 21.45,155.1361 20.352,156.3081 C22.756,158.5061 52.806,183.0181 52.39,183.7801" id="Fill-81" fill="#3E0000"></path></g></g></svg> 