<?xml version="1.0" encoding="UTF-8"?>
<svg viewBox="0 0 45 45" version="1.1" xmlns="http://www.w3.org/2000/svg" xmlns:xlink="http://www.w3.org/1999/xlink">
    <!-- Generator: Sketch 63.1 (92452) - https://sketch.com -->
    <title>Group 6</title>
    <desc>Created with Sketch.</desc>
    <g id="Home" stroke="none" stroke-width="1" fill="none" fill-rule="evenodd">
        <g transform="translate(-208.000000, -37.000000)" fill="#2F3B56" id="Top-section-1">
            <g transform="translate(-0.500000, 0.000000)">
                <g id="Header" transform="translate(0.500000, 0.000000)">
                    <g id="Group-6" transform="translate(208.000000, 37.000000)">
                        <path d="M22.5,0 C34.9264069,0 45,10.0735931 45,22.5 C45,34.9264069 34.9264069,45 22.5,45 C10.0735931,45 0,34.9264069 0,22.5 C0,10.0735931 10.0735931,0 22.5,0 Z M28.1071853,23.2826603 C28.0035629,23.1852732 27.8358076,23.1852732 27.7321853,23.2826603 L27.7321853,23.2826603 L15.5391924,34.7603919 C15.4557601,34.8390736 15.5148456,34.9735748 15.6330166,34.9735748 L15.6330166,34.9735748 L27.0424584,34.9735748 C27.1828979,34.9735748 27.3179929,34.9207245 27.4174584,34.8271971 L27.4174584,34.8271971 L32.7678147,29.7894893 C33.3892518,29.2042755 33.3892518,28.2556413 32.7678147,27.6704276 L32.7678147,27.6704276 Z M28.1071853,10.7960214 C28.0035629,10.6986342 27.8358076,10.6986342 27.7321853,10.7960214 L27.7321853,10.7960214 L14.155285,23.5763064 C14.0558195,23.6701306 14,23.797209 14,23.9296318 L14,23.9296318 L14,33.4355701 C14,33.5469121 14.1428147,33.6027316 14.226247,33.5240499 L14.226247,33.5240499 L31.8208008,16.8756104 C32.4422378,16.2903966 32.4425347,14.8911302 31.8208008,14.3062134 L31.8208008,14.3062134 Z M25.6288599,10 L14.2651425,10 C14.1187648,10 14,10.1119359 14,10.2497031 L14,10.2497031 L14,20.9489311 C14,21.0602732 14.1428147,21.1160926 14.2265439,21.0374109 L14.2265439,21.0374109 L25.7226841,10.2131829 C25.8064133,10.1345012 25.7470309,10 25.6288599,10 L25.6288599,10 Z" id="Combined-Shape"></path>
                    </g>
                </g>
            </g>
        </g>
    </g>
</svg>